<?xml version="1.0" standalone="no"?>
<!DOCTYPE svg PUBLIC "-//W3C//DTD SVG 20010904//EN"
 "http://www.w3.org/TR/2001/REC-SVG-20010904/DTD/svg10.dtd">
<svg version="1.0" xmlns="http://www.w3.org/2000/svg"
 width="700.000000pt" height="700.000000pt" viewBox="0 0 700.000000 700.000000"
 preserveAspectRatio="xMidYMid meet">
<metadata>
Created by potrace 1.11, written by Peter Selinger 2001-2013
</metadata>
<g transform="translate(0.000000,700.000000) scale(0.100000,-0.100000)"
fill="#000000" stroke="none">
<path d="M1155 6988 c-32 -17 -76 -61 -91 -90 -20 -39 -17 -115 7 -165 23 -48
62 -80 114 -94 l35 -10 0 -214 0 -215 -611 0 -611 0 5 -462 c5 -492 9 -542 63
-822 130 -666 471 -1297 968 -1791 189 -188 323 -298 536 -440 331 -220 677
-377 1045 -476 64 -17 102 -36 195 -98 64 -43 166 -106 228 -140 62 -35 112
-65 112 -68 0 -3 -16 -41 -36 -86 -20 -45 -37 -88 -38 -95 -1 -7 -51 -118
-112 -247 l-109 -235 -432 0 c-498 0 -501 0 -587 -88 -87 -88 -86 -80 -86
-652 l0 -500 1745 0 1745 0 0 498 c0 571 0 571 -77 653 -31 33 -63 55 -99 69
-52 19 -77 20 -487 20 l-432 0 -64 138 c-128 272 -231 503 -231 515 0 7 42 35
92 62 51 28 155 92 232 143 113 74 156 96 216 112 616 167 1191 508 1633 970
463 483 787 1101 911 1738 54 276 58 329 63 820 l5 462 -611 0 -611 0 0 215 0
214 39 11 c133 36 175 201 77 308 -50 56 113 52 -2398 52 -1675 -1 -2329 -4
-2343 -12z m2408 -1205 c31 -98 99 -304 150 -458 l93 -280 480 -5 480 -5 -383
-283 c-211 -156 -383 -289 -383 -296 0 -7 63 -214 140 -460 77 -247 139 -450
137 -452 -1 -1 -175 125 -387 282 -211 156 -387 284 -390 284 -3 0 -179 -128
-390 -284 -212 -157 -386 -283 -387 -282 -2 2 60 205 137 452 77 246 140 453
140 460 0 7 -172 140 -383 296 l-383 283 480 5 480 5 93 280 c51 154 119 360
150 458 31 97 59 177 63 177 4 0 32 -80 63 -177z m-2343 -455 c0 -333 13 -570
41 -763 54 -375 170 -744 342 -1087 l74 -147 -51 42 c-91 74 -300 289 -384
395 -242 302 -438 680 -543 1044 -64 220 -109 512 -109 700 l0 98 315 0 315 0
0 -282z m5188 188 c5 -168 -41 -487 -103 -701 -111 -385 -291 -729 -546 -1045
-100 -123 -419 -439 -419 -414 0 5 14 34 31 64 85 151 209 461 270 673 102
356 139 679 139 1230 l0 287 313 -2 312 -3 3 -89z"/>
</g>
</svg>
